<mxfile host="app.diagrams.net" modified="2022-08-24T03:10:06.587Z" agent="5.0 (Macintosh)" etag="YjcIuv0oWiIcAdLXBdn6" version="20.2.6" type="github">
  <diagram id="ftSVN6Fw9w7qbt5IRIi7" name="第 1 页">
    <mxGraphModel dx="1095" dy="751" grid="1" gridSize="10" guides="1" tooltips="1" connect="1" arrows="1" fold="1" page="1" pageScale="1" pageWidth="827" pageHeight="1169" math="0" shadow="0">
      <root>
        <mxCell id="0" />
        <mxCell id="1" parent="0" />
        <mxCell id="ZyIvLldJ3OBjITECG5pd-35" style="edgeStyle=none;rounded=0;orthogonalLoop=1;jettySize=auto;html=1;exitX=0.5;exitY=1;exitDx=0;exitDy=0;entryX=0.5;entryY=0;entryDx=0;entryDy=0;" edge="1" parent="1" source="ZyIvLldJ3OBjITECG5pd-1" target="ZyIvLldJ3OBjITECG5pd-14">
          <mxGeometry relative="1" as="geometry" />
        </mxCell>
        <mxCell id="ZyIvLldJ3OBjITECG5pd-36" style="edgeStyle=none;rounded=0;orthogonalLoop=1;jettySize=auto;html=1;exitX=0.5;exitY=1;exitDx=0;exitDy=0;entryX=0.5;entryY=0;entryDx=0;entryDy=0;" edge="1" parent="1" source="ZyIvLldJ3OBjITECG5pd-1" target="ZyIvLldJ3OBjITECG5pd-15">
          <mxGeometry relative="1" as="geometry" />
        </mxCell>
        <mxCell id="ZyIvLldJ3OBjITECG5pd-1" value="taskmanager-0" style="ellipse;whiteSpace=wrap;html=1;" vertex="1" parent="1">
          <mxGeometry x="180" y="430" width="110" height="50" as="geometry" />
        </mxCell>
        <mxCell id="ZyIvLldJ3OBjITECG5pd-37" style="edgeStyle=none;rounded=0;orthogonalLoop=1;jettySize=auto;html=1;exitX=0.5;exitY=1;exitDx=0;exitDy=0;entryX=0.5;entryY=0;entryDx=0;entryDy=0;" edge="1" parent="1" source="ZyIvLldJ3OBjITECG5pd-2" target="ZyIvLldJ3OBjITECG5pd-16">
          <mxGeometry relative="1" as="geometry" />
        </mxCell>
        <mxCell id="ZyIvLldJ3OBjITECG5pd-2" value="taskmanager-1" style="ellipse;whiteSpace=wrap;html=1;" vertex="1" parent="1">
          <mxGeometry x="320" y="430" width="110" height="50" as="geometry" />
        </mxCell>
        <mxCell id="ZyIvLldJ3OBjITECG5pd-38" style="edgeStyle=none;rounded=0;orthogonalLoop=1;jettySize=auto;html=1;exitX=0.5;exitY=1;exitDx=0;exitDy=0;" edge="1" parent="1" source="ZyIvLldJ3OBjITECG5pd-3" target="ZyIvLldJ3OBjITECG5pd-17">
          <mxGeometry relative="1" as="geometry" />
        </mxCell>
        <mxCell id="ZyIvLldJ3OBjITECG5pd-3" value="..." style="ellipse;whiteSpace=wrap;html=1;" vertex="1" parent="1">
          <mxGeometry x="470" y="430" width="110" height="50" as="geometry" />
        </mxCell>
        <mxCell id="ZyIvLldJ3OBjITECG5pd-39" style="edgeStyle=none;rounded=0;orthogonalLoop=1;jettySize=auto;html=1;exitX=0.5;exitY=1;exitDx=0;exitDy=0;entryX=0.5;entryY=0;entryDx=0;entryDy=0;" edge="1" parent="1" source="ZyIvLldJ3OBjITECG5pd-4" target="ZyIvLldJ3OBjITECG5pd-18">
          <mxGeometry relative="1" as="geometry" />
        </mxCell>
        <mxCell id="ZyIvLldJ3OBjITECG5pd-4" value="taskmanager-n" style="ellipse;whiteSpace=wrap;html=1;" vertex="1" parent="1">
          <mxGeometry x="610" y="430" width="110" height="50" as="geometry" />
        </mxCell>
        <mxCell id="ZyIvLldJ3OBjITECG5pd-25" style="edgeStyle=none;rounded=0;orthogonalLoop=1;jettySize=auto;html=1;exitX=0.5;exitY=1;exitDx=0;exitDy=0;entryX=0.5;entryY=0;entryDx=0;entryDy=0;" edge="1" parent="1" source="ZyIvLldJ3OBjITECG5pd-5" target="ZyIvLldJ3OBjITECG5pd-1">
          <mxGeometry relative="1" as="geometry" />
        </mxCell>
        <mxCell id="ZyIvLldJ3OBjITECG5pd-26" style="edgeStyle=none;rounded=0;orthogonalLoop=1;jettySize=auto;html=1;exitX=0.5;exitY=1;exitDx=0;exitDy=0;entryX=0.5;entryY=0;entryDx=0;entryDy=0;" edge="1" parent="1" source="ZyIvLldJ3OBjITECG5pd-5" target="ZyIvLldJ3OBjITECG5pd-2">
          <mxGeometry relative="1" as="geometry" />
        </mxCell>
        <mxCell id="ZyIvLldJ3OBjITECG5pd-5" value="pushsvr-0" style="rounded=1;whiteSpace=wrap;html=1;" vertex="1" parent="1">
          <mxGeometry x="260" y="280" width="80" height="40" as="geometry" />
        </mxCell>
        <mxCell id="ZyIvLldJ3OBjITECG5pd-27" style="edgeStyle=none;rounded=0;orthogonalLoop=1;jettySize=auto;html=1;exitX=0.5;exitY=1;exitDx=0;exitDy=0;entryX=0.5;entryY=0;entryDx=0;entryDy=0;" edge="1" parent="1" source="ZyIvLldJ3OBjITECG5pd-6" target="ZyIvLldJ3OBjITECG5pd-3">
          <mxGeometry relative="1" as="geometry" />
        </mxCell>
        <mxCell id="ZyIvLldJ3OBjITECG5pd-6" value="..." style="rounded=1;whiteSpace=wrap;html=1;" vertex="1" parent="1">
          <mxGeometry x="370" y="280" width="80" height="40" as="geometry" />
        </mxCell>
        <mxCell id="ZyIvLldJ3OBjITECG5pd-28" style="edgeStyle=none;rounded=0;orthogonalLoop=1;jettySize=auto;html=1;exitX=0.5;exitY=1;exitDx=0;exitDy=0;entryX=0.5;entryY=0;entryDx=0;entryDy=0;" edge="1" parent="1" source="ZyIvLldJ3OBjITECG5pd-7" target="ZyIvLldJ3OBjITECG5pd-4">
          <mxGeometry relative="1" as="geometry" />
        </mxCell>
        <mxCell id="ZyIvLldJ3OBjITECG5pd-7" value="pushsvr-n" style="rounded=1;whiteSpace=wrap;html=1;" vertex="1" parent="1">
          <mxGeometry x="490" y="280" width="80" height="40" as="geometry" />
        </mxCell>
        <mxCell id="ZyIvLldJ3OBjITECG5pd-29" style="edgeStyle=none;rounded=0;orthogonalLoop=1;jettySize=auto;html=1;exitX=0.5;exitY=1;exitDx=0;exitDy=0;entryX=0.5;entryY=0;entryDx=0;entryDy=0;" edge="1" parent="1" source="ZyIvLldJ3OBjITECG5pd-12" target="ZyIvLldJ3OBjITECG5pd-5">
          <mxGeometry relative="1" as="geometry" />
        </mxCell>
        <mxCell id="ZyIvLldJ3OBjITECG5pd-12" value="schedulersvr" style="rounded=1;whiteSpace=wrap;html=1;" vertex="1" parent="1">
          <mxGeometry x="280" y="170" width="80" height="40" as="geometry" />
        </mxCell>
        <mxCell id="ZyIvLldJ3OBjITECG5pd-32" style="edgeStyle=none;rounded=0;orthogonalLoop=1;jettySize=auto;html=1;exitX=0.5;exitY=1;exitDx=0;exitDy=0;exitPerimeter=0;entryX=0.5;entryY=0;entryDx=0;entryDy=0;" edge="1" parent="1" source="ZyIvLldJ3OBjITECG5pd-13" target="ZyIvLldJ3OBjITECG5pd-12">
          <mxGeometry relative="1" as="geometry" />
        </mxCell>
        <mxCell id="ZyIvLldJ3OBjITECG5pd-33" style="edgeStyle=none;rounded=0;orthogonalLoop=1;jettySize=auto;html=1;exitX=0.5;exitY=1;exitDx=0;exitDy=0;exitPerimeter=0;entryX=0.5;entryY=0;entryDx=0;entryDy=0;" edge="1" parent="1" source="ZyIvLldJ3OBjITECG5pd-13" target="ZyIvLldJ3OBjITECG5pd-30">
          <mxGeometry relative="1" as="geometry" />
        </mxCell>
        <mxCell id="ZyIvLldJ3OBjITECG5pd-34" style="edgeStyle=none;rounded=0;orthogonalLoop=1;jettySize=auto;html=1;exitX=0.5;exitY=1;exitDx=0;exitDy=0;exitPerimeter=0;entryX=0.5;entryY=0;entryDx=0;entryDy=0;" edge="1" parent="1" source="ZyIvLldJ3OBjITECG5pd-13" target="ZyIvLldJ3OBjITECG5pd-31">
          <mxGeometry relative="1" as="geometry" />
        </mxCell>
        <mxCell id="ZyIvLldJ3OBjITECG5pd-13" value="&lt;div&gt;kafka&lt;/div&gt;&lt;div&gt;(deviceheart)&lt;br&gt;&lt;/div&gt;" style="shape=cylinder3;whiteSpace=wrap;html=1;boundedLbl=1;backgroundOutline=1;size=15;" vertex="1" parent="1">
          <mxGeometry x="380" y="10" width="90" height="80" as="geometry" />
        </mxCell>
        <mxCell id="ZyIvLldJ3OBjITECG5pd-14" value="pod" style="ellipse;whiteSpace=wrap;html=1;aspect=fixed;" vertex="1" parent="1">
          <mxGeometry x="220" y="540" width="60" height="60" as="geometry" />
        </mxCell>
        <mxCell id="ZyIvLldJ3OBjITECG5pd-15" value="pod" style="ellipse;whiteSpace=wrap;html=1;aspect=fixed;" vertex="1" parent="1">
          <mxGeometry x="310" y="540" width="60" height="60" as="geometry" />
        </mxCell>
        <mxCell id="ZyIvLldJ3OBjITECG5pd-16" value="pod" style="ellipse;whiteSpace=wrap;html=1;aspect=fixed;" vertex="1" parent="1">
          <mxGeometry x="400" y="540" width="60" height="60" as="geometry" />
        </mxCell>
        <mxCell id="ZyIvLldJ3OBjITECG5pd-17" value="..." style="ellipse;whiteSpace=wrap;html=1;aspect=fixed;" vertex="1" parent="1">
          <mxGeometry x="490" y="540" width="60" height="60" as="geometry" />
        </mxCell>
        <mxCell id="ZyIvLldJ3OBjITECG5pd-18" value="pod" style="ellipse;whiteSpace=wrap;html=1;aspect=fixed;" vertex="1" parent="1">
          <mxGeometry x="580" y="540" width="60" height="60" as="geometry" />
        </mxCell>
        <mxCell id="ZyIvLldJ3OBjITECG5pd-21" value="taskrunner" style="rounded=0;whiteSpace=wrap;html=1;" vertex="1" parent="1">
          <mxGeometry x="50" y="540" width="120" height="60" as="geometry" />
        </mxCell>
        <mxCell id="ZyIvLldJ3OBjITECG5pd-22" value="taskmanager" style="rounded=0;whiteSpace=wrap;html=1;" vertex="1" parent="1">
          <mxGeometry x="50" y="430" width="120" height="60" as="geometry" />
        </mxCell>
        <mxCell id="ZyIvLldJ3OBjITECG5pd-23" value="pushsvr" style="rounded=0;whiteSpace=wrap;html=1;" vertex="1" parent="1">
          <mxGeometry x="40" y="270" width="120" height="60" as="geometry" />
        </mxCell>
        <mxCell id="ZyIvLldJ3OBjITECG5pd-24" value="schedulersvr" style="rounded=0;whiteSpace=wrap;html=1;" vertex="1" parent="1">
          <mxGeometry x="40" y="160" width="120" height="60" as="geometry" />
        </mxCell>
        <mxCell id="ZyIvLldJ3OBjITECG5pd-40" style="edgeStyle=none;rounded=0;orthogonalLoop=1;jettySize=auto;html=1;exitX=0.5;exitY=1;exitDx=0;exitDy=0;" edge="1" parent="1" source="ZyIvLldJ3OBjITECG5pd-30" target="ZyIvLldJ3OBjITECG5pd-6">
          <mxGeometry relative="1" as="geometry" />
        </mxCell>
        <mxCell id="ZyIvLldJ3OBjITECG5pd-41" style="edgeStyle=none;rounded=0;orthogonalLoop=1;jettySize=auto;html=1;exitX=0.5;exitY=1;exitDx=0;exitDy=0;entryX=0.5;entryY=0;entryDx=0;entryDy=0;" edge="1" parent="1" source="ZyIvLldJ3OBjITECG5pd-30" target="ZyIvLldJ3OBjITECG5pd-7">
          <mxGeometry relative="1" as="geometry" />
        </mxCell>
        <mxCell id="ZyIvLldJ3OBjITECG5pd-30" value="schedulersvr" style="rounded=1;whiteSpace=wrap;html=1;" vertex="1" parent="1">
          <mxGeometry x="380" y="170" width="80" height="40" as="geometry" />
        </mxCell>
        <mxCell id="ZyIvLldJ3OBjITECG5pd-31" value="schedulersvr" style="rounded=1;whiteSpace=wrap;html=1;" vertex="1" parent="1">
          <mxGeometry x="480" y="170" width="80" height="40" as="geometry" />
        </mxCell>
      </root>
    </mxGraphModel>
  </diagram>
</mxfile>
